IKResults
version=1
nRows=8
nColumns=63
inDegrees=yes

Units are S.I. units (second, meters, Newtons, ...)
If the header above contains a line with 'inDegrees', this indicates whether rotational values are in degrees (yes) or radians (no).

endheader
time	pelvis_tilt	pelvis_list	pelvis_rotation	pelvis_tx	pelvis_ty	pelvis_tz	hip_flexion_r	hip_adduction_r	hip_rotation_r	knee_angle_r	knee_angle_r_beta	ankle_angle_r	subtalar_angle_r	mtp_angle_r	hip_flexion_l	hip_adduction_l	hip_rotation_l	knee_angle_l	knee_angle_l_beta	ankle_angle_l	subtalar_angle_l	mtp_angle_l	L5_S1_Flex_Ext	L5_S1_Lat_Bending	L5_S1_axial_rotation	L4_L5_Flex_Ext	L4_L5_Lat_Bending	L4_L5_axial_rotation	L3_L4_Flex_Ext	L3_L4_Lat_Bending	L3_L4_axial_rotation	L2_L3_Flex_Ext	L2_L3_Lat_Bending	L2_L3_axial_rotation	L1_L2_Flex_Ext	L1_L2_Lat_Bending	L1_L2_axial_rotation	L1_T12_Flex_Ext	L1_T12_Lat_Bending	L1_T12_axial_rotation	Abs_r3	Abs_r2	Abs_r1	Abs_t1	Abs_t2	neck_flexion	neck_bending	neck_rotation	arm_flex_r	arm_add_r	arm_rot_r	elbow_flex_r	pro_sup_r	wrist_flex_r	wrist_dev_r	arm_flex_l	arm_add_l	arm_rot_l	elbow_flex_l	pro_sup_l	wrist_flex_l	wrist_dev_l
      0.03333333	    -10.22749847	     -2.09121649	      4.41737700	      0.30442129	      0.92938388	     -0.26291885	      3.88914202	     -2.21457987	    -11.67676105	      2.36127650	      0.04121205	     12.17115232	     -6.07814849	      0.00000000	      5.70946236	     -7.97818770	    -18.44880430	      7.90277561	      0.13792945	     13.19694407	      1.13315861	      0.00000000	      1.46486452	      0.21922589	     -0.63688353	      2.72039990	      0.29157043	     -0.67668875	      2.40662592	      0.53302582	     -0.67668875	      1.67419366	      0.53302582	     -0.55727309	      1.36027319	      0.44704543	     -0.51746787	      0.83702359	      0.33958090	     -0.47766265	     10.46338077	      2.47992708	     -3.54215512	      0.00000000	      0.00000000	     26.39103564	      0.22184970	     -2.84117964	     -5.39038521	    -12.26335430	     28.68374015	     20.29162656	     89.99559364	      0.00000000	      0.00000000	     -9.93808335	     -9.74230144	     -0.69806623	     27.59575177	     89.99559364	      0.00000000	      0.00000000
      0.06666667	    -10.23357989	     -2.08690592	      4.41930408	      0.30447793	      0.92941613	     -0.26286471	      3.89088986	     -2.21581183	    -11.67639153	      2.36765462	      0.04132337	     12.17047875	     -6.07706927	      0.00000000	      5.70775365	     -7.97782644	    -18.44777552	      7.90520965	      0.13797194	     13.19660981	      1.13304536	      0.00000000	      1.46438668	      0.21948215	     -0.63683915	      2.71951250	      0.29191126	     -0.67664160	      2.40584087	      0.53364890	     -0.67664160	      1.67364753	      0.53364890	     -0.55723426	      1.35982947	      0.44756800	     -0.51743181	      0.83675055	      0.33997785	     -0.47762937	     10.45996759	      2.48282596	     -3.54190832	      0.00000000	      0.00000000	     26.37723454	      0.22198964	     -2.84133950	     -5.39234548	    -12.26318562	     28.68396427	     20.29287757	     89.99559364	      0.00000000	      0.00000000	     -9.93972497	     -9.74151357	     -0.69791384	     27.59647556	     89.99559364	      0.00000000	      0.00000000
      0.10000000	    -10.21240556	     -2.07819539	      4.40888077	      0.30495358	      0.92953726	     -0.26280260	      3.84806360	     -2.22037336	    -11.69544505	      2.39977734	      0.04188402	     12.11443641	     -6.07650866	      0.00000000	      5.64130635	     -7.98280896	    -18.44065414	      7.92174786	      0.13826058	     13.16871074	      1.13791619	      0.00000000	      1.46368544	      0.22079858	     -0.63365661	      2.71821024	      0.29366212	     -0.67326015	      2.40468881	      0.53684968	     -0.67326015	      1.67284609	      0.53684968	     -0.55444954	      1.35917830	      0.45025247	     -0.51484600	      0.83634986	      0.34201701	     -0.47524246	     10.45495875	      2.49771774	     -3.52420799	      0.00000000	      0.00000000	     26.31918960	      0.22665771	     -2.85936582	     -5.49270456	    -12.27190396	     28.69031142	     20.30718670	     89.99559364	      0.00000000	      0.00000000	    -10.03039446	     -9.71721180	     -0.70050753	     27.60111954	     89.99559364	      0.00000000	      0.00000000
      0.13333333	    -10.12594453	     -2.10373363	      4.35730610	      0.30542059	      0.92981817	     -0.26261713	      3.73195280	     -2.16555693	    -11.74701005	      2.40141366	      0.04191258	     11.97940993	     -6.07612904	      0.00000000	      5.47020733	     -8.02175201	    -18.47672609	      7.86211901	      0.13721986	     13.07981573	      1.11582232	      0.00000000	      1.45133191	      0.22648999	     -0.61740552	      2.69526849	      0.30123168	     -0.65599336	      2.38439319	      0.55068776	     -0.65599336	      1.65872724	      0.55068776	     -0.54022983	      1.34770681	      0.46185838	     -0.50164198	      0.82929105	      0.35083299	     -0.46305414	     10.36671869	      2.56210005	     -3.43382426	      0.00000000	      0.00000000	     26.02254241	      0.24832178	     -2.98400357	     -5.64359177	    -12.34765379	     28.66517336	     20.54996131	     89.99559364	      0.00000000	      0.00000000	    -10.11853926	     -9.67557705	     -0.79178462	     27.76818035	     89.99559364	      0.00000000	      0.00000000
      0.16666667	    -10.11852917	     -2.08431593	      4.34238834	      0.30582231	      0.93001479	     -0.26240265	      3.69722790	     -2.17023189	    -11.74194501	      2.41775003	      0.04219770	     11.96598751	     -6.07026947	      0.00000000	      5.43155387	     -8.02207534	    -18.48019157	      7.88138557	      0.13755613	     13.04155944	      1.11563419	      0.00000000	      1.44682506	      0.22800877	     -0.61591062	      2.68689882	      0.30325166	     -0.65440503	      2.37698890	      0.55438052	     -0.65440503	      1.65357636	      0.55438052	     -0.53892179	      1.34352175	      0.46495548	     -0.50042738	      0.82671584	      0.35318558	     -0.46193297	     10.33452674	      2.57928078	     -3.42551010	      0.00000000	      0.00000000	     25.96876746	      0.25151909	     -3.00388821	     -5.72665006	    -12.35736524	     28.66488510	     20.56499902	     89.99559364	      0.00000000	      0.00000000	    -10.19424081	     -9.64701296	     -0.80371003	     27.75802087	     89.99559364	      0.00000000	      0.00000000
      0.20000000	     -9.92399971	     -2.08040615	      4.19986861	      0.30656176	      0.93054418	     -0.26197303	      3.43590378	     -2.12295434	    -11.65765648	      2.38090182	      0.04155458	     11.88915550	     -6.00463728	      0.00000000	      5.13653200	     -8.06204270	    -18.64276444	      7.87909488	      0.13751615	     12.84303601	      1.00798350	      0.00000000	      1.41936269	      0.23143112	     -0.58471746	      2.63589845	      0.30780339	     -0.62126230	      2.33187096	      0.56270163	     -0.62126230	      1.62218962	      0.56270163	     -0.51162778	      1.31802019	      0.47193435	     -0.47508294	      0.81102384	      0.35848681	     -0.43853810	     10.13836575	      2.61799515	     -3.25202312	      0.00000000	      0.00000000	     25.43904718	      0.29832077	     -3.22870226	     -5.90091732	    -12.47095383	     28.55974252	     20.91461749	     89.99559364	      0.00000000	      0.00000000	    -10.29935867	     -9.57055405	     -1.05197021	     27.83471427	     89.99559364	      0.00000000	      0.00000000
      0.23333333	     -9.81278304	     -2.04469842	      4.04983298	      0.30693918	      0.93097278	     -0.26133840	      3.29626018	     -2.10706499	    -11.55776718	      2.35001808	      0.04101555	     11.88972519	     -5.94889729	      0.00000000	      4.98340055	     -8.08331644	    -18.75700382	      7.93159176	      0.13843239	     12.65579993	      0.93515300	      0.00000000	      1.39482835	      0.23263966	     -0.56754710	      2.59033573	      0.30941075	     -0.60301879	      2.29156349	      0.56564007	     -0.60301879	      1.59414932	      0.56564007	     -0.49660371	      1.29523760	      0.47439880	     -0.46113202	      0.79700492	      0.36035884	     -0.42566032	      9.96311941	      2.63166638	     -3.15652669	      0.00000000	      0.00000000	     25.12915028	      0.32233598	     -3.35980263	     -5.96530563	    -12.47513624	     28.47663427	     21.06773775	     89.99559364	      0.00000000	      0.00000000	    -10.33811348	     -9.53206843	     -1.22617393	     27.82151570	     89.99559364	      0.00000000	      0.00000000
      0.26666667	     -9.09089119	     -1.93264024	      3.51611928	      0.30677107	      0.93216932	     -0.26018732	      2.59908452	     -2.11676555	    -10.89601752	      2.32281363	      0.04054075	     11.87849479	     -5.99597003	      0.00000000	      4.06287741	     -8.04559991	    -19.11873629	      7.84334845	      0.13689225	     12.52321815	      0.51784705	      0.00000000	      1.24755924	      0.23100868	     -0.45814881	      2.31684226	      0.30724155	     -0.48678311	      2.04961507	      0.56167451	     -0.48678311	      1.42583545	      0.56167451	     -0.40088021	      1.15848351	      0.47107290	     -0.37224591	      0.71285535	      0.35783245	     -0.34361161	      8.91119087	      2.61321641	     -2.54808622	      0.00000000	      0.00000000	     25.08562727	      0.14505812	     -4.08048413	     -5.90090051	    -12.29725488	     26.64597165	     21.30371867	     89.99559364	      0.00000000	      0.00000000	    -10.05722749	     -9.00437286	     -3.85259615	     27.73826462	     89.99559364	      0.00000000	      0.00000000
